<svg fill="none" height="512" viewBox="0 0 24 24" width="512" xmlns="http://www.w3.org/2000/svg"><g fill="rgb(0,0,0)"><path clip-rule="evenodd" d="m5 2c-.55228 0-1 .44772-1 1v18h-.5c-.27614 0-.5.2239-.5.5s.22386.5.5.5h4v-3c0-.5523.44772-1 1-1h2c.5523 0 1 .4477 1 1v3h9c.2761 0 .5-.2239.5-.5s-.2239-.5-.5-.5h-.5v-15c0-.55228-.4477-1-1-1h-4v-2c0-.55228-.4477-1-1-1zm2.5 3c-.27614 0-.5.22386-.5.5v1c0 .27614.22386.5.5.5h1c.27614 0 .5-.22386.5-.5v-1c0-.27614-.22386-.5-.5-.5zm-.5 3.5c0-.27614.22386-.5.5-.5h1c.27614 0 .5.22386.5.5v1c0 .27614-.22386.5-.5.5h-1c-.27614 0-.5-.22386-.5-.5zm.5 2.5c-.27614 0-.5.2239-.5.5v1c0 .2761.22386.5.5.5h1c.27614 0 .5-.2239.5-.5v-1c0-.2761-.22386-.5-.5-.5zm-.5 3.5c0-.2761.22386-.5.5-.5h1c.27614 0 .5.2239.5.5v1c0 .2761-.22386.5-.5.5h-1c-.27614 0-.5-.2239-.5-.5zm3.5-9.5c-.2761 0-.5.22386-.5.5v1c0 .27614.2239.5.5.5h1c.2761 0 .5-.22386.5-.5v-1c0-.27614-.2239-.5-.5-.5zm5.5 3.5c0-.27614.2239-.5.5-.5h1c.2761 0 .5.22386.5.5v1c0 .27614-.2239.5-.5.5h-1c-.2761 0-.5-.22386-.5-.5zm.5 2.5c-.2761 0-.5.2239-.5.5v1c0 .2761.2239.5.5.5h1c.2761 0 .5-.2239.5-.5v-1c0-.2761-.2239-.5-.5-.5zm-.5 3.5c0-.2761.2239-.5.5-.5h1c.2761 0 .5.2239.5.5v1c0 .2761-.2239.5-.5.5h-1c-.2761 0-.5-.2239-.5-.5zm.5 2.5c-.2761 0-.5.2239-.5.5v1c0 .2761.2239.5.5.5h1c.2761 0 .5-.2239.5-.5v-1c0-.2761-.2239-.5-.5-.5zm-6.5-8.5c0-.27614.2239-.5.5-.5h1c.2761 0 .5.22386.5.5v1c0 .27614-.2239.5-.5.5h-1c-.2761 0-.5-.22386-.5-.5zm.5 2.5c-.2761 0-.5.2239-.5.5v1c0 .2761.2239.5.5.5h1c.2761 0 .5-.2239.5-.5v-1c0-.2761-.2239-.5-.5-.5zm-.5 3.5c0-.2761.2239-.5.5-.5h1c.2761 0 .5.2239.5.5v1c0 .2761-.2239.5-.5.5h-1c-.2761 0-.5-.2239-.5-.5z" fill-rule="evenodd"/><path d="m10.5 22v-3h-2v3z"/></g></svg>