<svg id="Icons" height="512" viewBox="0 0 60 60" width="512" xmlns="http://www.w3.org/2000/svg"><path d="m48 51h3.001v3h-3.001z"/><path d="m44.976 39.906-1.3 1.3a2 2 0 0 1 -.671.442v16.352h11.995a1 1 0 0 0 1-1v-19h-10.5a2.041 2.041 0 0 1 .066.457 1.985 1.985 0 0 1 -.584 1.448zm1.024 2.094a2 2 0 0 1 2-2h3a2 2 0 0 1 2 2v3a2 2 0 0 1 -2 2h-3a2 2 0 0 1 -2-2zm0 9a2 2 0 0 1 2-2h3a2 2 0 0 1 2 2v3a2 2 0 0 1 -2 2h-3a2 2 0 0 1 -2-2z"/><path d="m48 42h3.001v3h-3.001z"/><path d="m17.743 39.8 11.574-10.814a1 1 0 0 1 1.366 0l11.574 10.814 1.3-1.3-13.251-12.379a.45.45 0 0 0 -.612 0l-13.255 12.371z"/><path d="m36.323 29 7.5 7h13.177a1 1 0 0 0 .915-1.407l-2.227-5a1 1 0 0 0 -.908-.6z"/><path d="m4 38v19a1 1 0 0 0 1 1h12v-16.345a2.007 2.007 0 0 1 -.67-.443l-1.306-1.306a1.986 1.986 0 0 1 -.585-1.449 2.041 2.041 0 0 1 .066-.457zm10 16a2 2 0 0 1 -2 2h-3a2 2 0 0 1 -2-2v-3a2 2 0 0 1 2-2h3a2 2 0 0 1 2 2zm0-9a2 2 0 0 1 -2 2h-3a2 2 0 0 1 -2-2v-3a2 2 0 0 1 2-2h3a2 2 0 0 1 2 2z"/><path d="m9 42h3.001v3h-3.001z"/><path d="m9 51h3.001v3h-3.001z"/><path d="m33 48h-2v10h3v-9a1 1 0 0 0 -1-1z"/><path d="m27 48a1 1 0 0 0 -1 1v9h3v-10z"/><path d="m28 39h4.001v3h-4.001z"/><path d="m30 31.085-10.892 10.173c-.034.032-.072.054-.108.083v16.659h5v-9a3 3 0 0 1 3-3h6a3 3 0 0 1 3 3v9h5v-16.658c-.036-.029-.075-.052-.109-.084zm4 10.915a2 2 0 0 1 -2 2h-4a2 2 0 0 1 -2-2v-3a2 2 0 0 1 2-2h4a2 2 0 0 1 2 2z"/><path d="m31.464 24.5.74-2.722a11.052 11.052 0 0 1 -4.408 0l.74 2.722a2.445 2.445 0 0 1 2.928 0z"/><path d="m30 20a9 9 0 1 0 -9-9 9.01 9.01 0 0 0 9 9zm-.245-7.267a1 1 0 0 1 1.329-.481 1.022 1.022 0 0 1 .5 1.34.994.994 0 0 1 -.9.585.971.971 0 0 1 -.411-.093l-.046-.021a1 1 0 0 1 -.472-1.33zm-.755 4.213a1 1 0 1 1 2 0 1.023 1.023 0 0 1 -1 1.028.977.977 0 0 1 -1-.974zm-1.488-7.254.048-.017a1 1 0 1 1 .336 1.939 1.011 1.011 0 0 1 -.955-.647.979.979 0 0 1 .571-1.275zm-1.012 4.808a1 1 0 0 1 0 1.414 1.04 1.04 0 0 1 -.735.3.991.991 0 0 1 -.716-1.68l.037-.037a1 1 0 0 1 1.414.003zm-3.474-3.5a.977.977 0 0 1 .974-1h.054a1 1 0 1 1 0 2 1.023 1.023 0 0 1 -1.028-1z"/><path d="m2.166 35.548a.983.983 0 0 0 .834.452h13.178l7.5-7h-18.456a1 1 0 0 0 -.907.6l-2.23 5a.989.989 0 0 0 .081.948z"/></svg>