<svg fill="none" height="32" viewBox="0 0 32 32" width="32" xmlns="http://www.w3.org/2000/svg"><path d="m10.5 6.5h17m-17 0 2-2m-2 2 2 2m15-2-2-2m2 2-2 2" stroke="#000" stroke-linecap="round" stroke-linejoin="round"/><path d="m6.5 27.5v-17m0 17-2-2m2 2 2-2m-2-15-2 2m2-2 2 2" stroke="#000" stroke-linecap="round" stroke-linejoin="round"/><path d="m10.5 10.5v-.5c-.2761 0-.5.2239-.5.5zm17 0h.5c0-.2761-.2238-.5-.5-.5zm0 17v.5c.2762 0 .5-.2239.5-.5zm-17 0h-.5c0 .2761.2239.5.5.5zm2 .5c.2762 0 .5-.2239.5-.5s-.2238-.5-.5-.5zm3-1c-.2761 0-.5.2239-.5.5s.2239.5.5.5zm2.5-4.5c0-.2761-.2238-.5-.5-.5-.2761 0-.5.2239-.5.5zm-3.5-3.5c.2762 0 .5-.2239.5-.5s-.2238-.5-.5-.5zm3-1c-.2761 0-.5.2239-.5.5s.2239.5.5.5zm4 1c.2762 0 .5-.2239.5-.5s-.2238-.5-.5-.5zm3-1c-.2761 0-.5.2239-.5.5s.2239.5.5.5zm-11 5.5v.5c.2762 0 .5-.2239.5-.5zm.5-1c0-.2761-.2238-.5-.5-.5-.2761 0-.5.2239-.5.5zm-1-3c0 .2761.2239.5.5.5.2762 0 .5-.2239.5-.5zm-.5 7.5h-2v1h2zm5.5.5v-5h-1v5zm6.5-8.5h3v-1h-3zm-5.5-8.5v8h1v-8zm-8.5 13.5h3v-1h-3zm3.5-.5v-1h-1v1zm-1-5v1h1v-1zm14.5 8.5h-10v1h10zm-10 0h-2v1h2zm-6.5.5v-4h-1v4zm0-4v-5h-1v5zm0-5v-8h-1v8zm-.5.5h3v-1h-3zm3 0h1v-1h-1zm-3-8h9v-1h-9zm9 0h8v-1h-8zm-2 8h2v-1h-2zm2 0h2v-1h-2zm7.5-8.5v8h1v-8zm0 8v9h1v-9z" fill="#000"/></svg>