<?xml version="1.0" encoding="UTF-8"?>
<svg xmlns="http://www.w3.org/2000/svg" xmlns:xlink="http://www.w3.org/1999/xlink" version="1.1" id="Layer_1" x="0px" y="0px" viewBox="0 0 74 74" style="enable-background:new 0 0 74 74;" xml:space="preserve" width="512" height="512">
<g>
	<path d="M53.47,15.07c5.03,0.8,5.65,5.03,5.67,5.21c0.05,0.37,0.35,0.65,0.72,0.66c0.01,0,0.02,0,0.02,0   c0.36,0,0.67-0.26,0.74-0.61c0.04-0.23,1.07-5.63,5.49-5.22c0.41,0.04,0.78-0.26,0.82-0.68c0.04-0.41-0.26-0.78-0.68-0.82   c-3.4-0.32-5.4,2.01-6.4,4.23c-0.85-1.65-2.61-3.69-6.14-4.25c-0.4-0.06-0.79,0.21-0.86,0.62C52.79,14.62,53.07,15.01,53.47,15.07z   "/>
	<path d="M42.2,9.49c3.83,0.61,4.31,3.83,4.33,3.96c0.05,0.37,0.35,0.65,0.72,0.66c0.01,0,0.01,0,0.02,0c0.36,0,0.67-0.26,0.74-0.62   c0.03-0.18,0.8-4.29,4.14-3.97c0.41,0.04,0.78-0.26,0.82-0.68c0.04-0.41-0.26-0.78-0.68-0.82c-2.59-0.24-4.2,1.42-5.05,3.12   c-0.8-1.35-2.29-2.73-4.81-3.13c-0.41-0.06-0.79,0.21-0.86,0.62C41.51,9.04,41.79,9.42,42.2,9.49z"/>
	<path d="M9.76,18c2.36,0.37,2.66,2.34,2.67,2.42c0.05,0.37,0.35,0.64,0.72,0.66c0.01,0,0.02,0,0.02,0c0.36,0,0.67-0.26,0.74-0.61   c0.02-0.11,0.5-2.64,2.49-2.44c0.41,0.04,0.78-0.26,0.82-0.68c0.04-0.41-0.26-0.78-0.68-0.82c-1.67-0.16-2.76,0.78-3.41,1.84   c-0.6-0.83-1.6-1.61-3.14-1.85c-0.41-0.06-0.79,0.21-0.86,0.62C9.07,17.55,9.35,17.94,9.76,18z"/>
	<path d="M14.62,14.21h1.93c0.41,0,0.75-0.34,0.75-0.75s-0.34-0.75-0.75-0.75h-1.49c-0.1-0.23-0.15-0.48-0.15-0.74   c0-0.94,0.7-1.74,1.64-1.88c0.37-0.05,0.64-0.41,0.64-0.78c0-1.05,0.86-1.91,1.91-1.91c0.61,0,1.19,0.3,1.55,0.81   c0.22,0.32,0.65,0.41,0.99,0.21c0.27-0.16,0.54-0.23,0.83-0.23c0.91,0,1.65,0.74,1.65,1.65l-0.02,0.19   c-0.05,0.41,0.24,0.78,0.65,0.83c0.82,0.11,1.43,0.81,1.43,1.63c0,0.26-0.06,0.51-0.17,0.73c-0.12,0.23-0.1,0.51,0.03,0.73   c0.14,0.22,0.38,0.36,0.64,0.36h3.19c0.41,0,0.75-0.34,0.75-0.75s-0.34-0.75-0.75-0.75h-2.2c0.01-0.11,0.02-0.21,0.02-0.32   c0-1.34-0.85-2.51-2.07-2.95c-0.15-1.6-1.5-2.85-3.14-2.85c-0.34,0-0.68,0.06-1.01,0.17C20.83,6.25,19.99,5.9,19.1,5.9   c-1.68,0-3.08,1.22-3.35,2.85c-1.36,0.46-2.33,1.75-2.33,3.22c0,0.68,0.2,1.34,0.58,1.91C14.14,14.08,14.37,14.21,14.62,14.21z"/>
	<path d="M67.43,66.6h-9.42v-8.79h9.42c0.32,0,0.6-0.2,0.71-0.5c0.1-0.3,0.01-0.63-0.24-0.83c-2.74-2.2-4.93-5.72-6.7-8.55   c-0.16-0.27-0.32-0.52-0.48-0.77h4.36c0.31,0,0.6-0.2,0.7-0.5c0.11-0.3,0.01-0.64-0.23-0.84c-2.74-2.2-5.05-4.8-6.87-7.74h4.89   c0.32,0,0.6-0.2,0.71-0.5c0.1-0.3,0.01-0.63-0.24-0.83c-7.27-5.82-8.89-13.5-8.91-13.58c-0.07-0.35-0.38-0.6-0.74-0.6   c-0.35,0-0.66,0.25-0.73,0.6c-0.01,0.07-1.37,6.49-7.12,12c-1.68-1.8-3.21-3.76-4.59-5.86h6.81c0.32,0,0.6-0.2,0.7-0.5   c0.11-0.3,0.01-0.64-0.23-0.84C38.53,19.41,36.14,8.1,36.12,7.98c-0.07-0.35-0.38-0.6-0.73-0.6c-0.36,0-0.67,0.25-0.74,0.6   c-0.02,0.1-1.58,7.48-7.8,14.83c-2.13-3.98-2.76-7.05-2.77-7.08c-0.07-0.35-0.37-0.61-0.73-0.61s-0.67,0.26-0.74,0.61   c-0.02,0.1-2.13,10.12-11.53,17.72c-0.24,0.2-0.34,0.53-0.23,0.83c0.1,0.3,0.39,0.5,0.7,0.5h5.86c-2.27,3.45-5.05,6.52-8.28,9.13   c-0.25,0.2-0.34,0.53-0.23,0.83c0.1,0.3,0.39,0.5,0.7,0.5h6.19c-1.73,3.59-5.19,7.62-9.69,11.24c-0.24,0.2-0.34,0.54-0.23,0.84   c0.1,0.3,0.39,0.5,0.7,0.5h13.38v8.78H6.57c-0.41,0-0.75,0.34-0.75,0.75c0,0.42,0.34,0.75,0.75,0.75h60.86   c0.41,0,0.75-0.33,0.75-0.75C68.18,66.94,67.84,66.6,67.43,66.6z M27.31,24.58c2.36-2.63,4.12-5.28,5.42-7.67   c1.3-2.38,2.14-4.49,2.66-6.02c1.25,3.71,4.36,10.74,11.31,16.92H24.07C25.26,26.75,26.33,25.67,27.31,24.58z M26.79,34.57   c0.01-0.02,0.02-0.04,0.04-0.06c1.38-1.63,2.64-3.38,3.79-5.2h9.53c1.68,2.68,3.62,5.15,5.75,7.37c0.02,0.02,2.73,2.67,2.99,2.9   H21.88C23.64,38.03,25.28,36.36,26.79,34.57z M47.95,41.08c-0.67,0.83-1.38,1.63-2.14,2.39c-0.6-0.77-1.19-1.57-1.76-2.39H47.95z    M18.46,52.48c4.27-3.51,9.22-10.12,10.08-11.4h13.68c2.35,4.15,8.55,10.07,10.1,11.4H18.46z M25.24,66.6h-3.79v-8.78h3.79V66.6z    M30.98,66.6h-4.24v-8.78h4.24V66.6z M38.29,66.57h-5.81V53.99h5.81V66.57z M50.77,66.6H39.79V53.98h2.57l-1.64,2.69   c-0.14,0.23-0.15,0.52-0.01,0.76c0.13,0.24,0.38,0.38,0.65,0.38h9.41V66.6z M56.51,66.6h-4.24v-8.79h4.24V66.6z"/>
</g>
</svg>
