<svg id="Glyph" height="512" viewBox="0 0 64 64" width="512" xmlns="http://www.w3.org/2000/svg"><path d="m59.48999 23.62-21.71997-12.20001c-.15002-.09003-.32001-.13-.48999-.13h-2.96002s12.26001 14.17999 12.27997 14.21002h7.33118v15.62109h-13.2876v-15.62109h3.30646l-11.98004-13.85999-11.97998 13.85999h3.36646v15.62109h-13.28761v-15.62109h7.28113l12.28003-14.21002h-2.91003c-.16998 0-.33997.03998-.48999.13l-21.71998 12.20001c-.40002.22998-.59003.69-.47998 1.13.12.44.51996.75.96997.75h3.06885v26.47998h-.25885c-1.77002 0-3.21002 1.44-3.21002 3.21002v1.85999c0 .54999.45001 1 1 1h52.80004c.54999 0 1-.45001 1-1v-1.85999c0-1.77002-1.44-3.21002-3.21002-3.21002h-.25885v-26.47998h3.06885c.45001 0 .84998-.31.96997-.75.11005-.44-.07996-.90002-.47998-1.13zm-12.86011 19.5011v8.85889h-5.98633v-8.85889zm-7.98633 0v8.85889h-5.64355v-8.85889zm-7.64355 8.85889h-5.64355v-8.85889h5.64355zm-5.64355-26.47998h13.28711v15.62109h-13.28711zm-2 26.47998h-5.98633v-8.85889h5.98633zm-13.2876-8.85889h5.30127v8.85889h-5.30127zm38.56104 8.85889v-8.85889h5.30127v8.85889z"/><path d="m27.96002 9.78998h9.32001c.29999 0 .60999.06.89996.16998-.46002-2.27997-2.48999-4.00995-4.89996-4.00995h-2.56006c-2.40997 0-4.43994 1.72998-4.89996 4.00995.28998-.10999.59998-.16998.89996-.16998z"/></svg>