<svg id="Layer_1" enable-background="new 0 0 256.426 376.284" height="512" viewBox="0 0 256.426 376.284" width="512" xmlns="http://www.w3.org/2000/svg"><g><path d="m182.4 91.972c.073-.1.146-.199.214-.303.074-.113.141-.229.209-.344.065-.11.129-.219.189-.332.058-.111.11-.224.162-.337.058-.125.117-.251.169-.38.042-.105.079-.212.116-.318.05-.14.099-.28.141-.424.03-.104.055-.21.081-.315.036-.146.073-.292.101-.441.022-.116.036-.232.053-.348.02-.139.042-.278.055-.42.013-.141.016-.282.021-.423.004-.101.015-.2.015-.302v-27.834-14.05c0-4.418-3.582-8-8-8s-8 3.582-8 8v13.175 6.921l-9.594-11.303c-.159-.187-.33-.362-.504-.532h-59.231c-.174.17-.345.345-.504.532l-9.594 11.302v-6.17-13.925c0-4.418-3.582-8-8-8s-8 3.582-8 8v15.674 26.21c0 .094.011.186.014.28.005.15.009.3.023.45.012.135.033.266.052.399.018.123.033.247.056.369.027.143.062.283.097.423.027.111.053.222.086.333.041.138.088.273.136.408.039.112.078.224.122.334.05.124.106.244.162.365.055.118.109.236.169.351.057.109.119.213.181.319.07.12.14.24.217.357.065.099.136.194.205.291.083.114.164.228.253.339.08.1.167.194.252.289.087.098.172.196.264.29.108.11.222.212.336.315.067.061.128.127.198.186.015.013.031.023.046.035.085.071.175.136.263.204.111.085.221.172.335.251.088.061.181.116.271.173.121.076.242.153.365.222.092.051.186.098.28.145.129.065.258.129.389.187.097.043.195.082.294.121.133.052.266.102.401.147.102.034.204.066.307.096.14.04.281.076.422.109.101.023.201.047.303.066.159.03.318.053.478.073.088.011.175.026.263.034.249.023.498.038.747.038h.01c.284 0 .565-.016.842-.045.014-.001.028-.005.042-.006.265-.029.526-.071.782-.125.049-.01.097-.026.146-.037.22-.051.437-.107.649-.176.078-.025.154-.057.232-.085.178-.064.355-.129.527-.205.098-.043.194-.093.291-.14.147-.072.292-.145.433-.225.105-.06.208-.124.311-.189.129-.081.256-.165.38-.254.101-.072.201-.147.3-.224.125-.099.246-.202.365-.307.087-.077.173-.153.257-.234.138-.134.269-.275.397-.418.047-.052.098-.098.144-.152l14.492-17.073v32.492 18.94 98c0 6.83 5.537 12.363 12.363 12.363 6.828 0 12.365-5.533 12.365-12.363v-90.271h4.635v90.271c0 6.83 5.537 12.363 12.363 12.363 6.828 0 12.365-5.533 12.365-12.363v-98-18.94-32.673l14.645 17.253c.049.057.104.106.154.162.125.139.251.275.384.405.087.085.178.164.268.244.115.102.232.202.353.297.102.08.205.157.31.232.12.085.242.166.367.245.107.068.214.135.324.197.136.078.277.148.418.217.101.05.202.102.305.147.167.073.339.137.511.199.082.03.163.063.246.09.208.067.42.122.635.172.053.012.106.03.159.041.251.053.506.093.765.122.02.002.039.007.059.009.276.029.557.045.841.045.004 0 .008-.001.012-.001.248 0 .497-.014.744-.038.09-.008.177-.023.266-.034.159-.02.317-.043.475-.073.103-.02.205-.043.307-.067.14-.032.279-.067.418-.107.105-.03.208-.063.312-.097.133-.044.265-.093.396-.145.101-.04.201-.08.3-.123.129-.057.255-.12.381-.184.096-.049.193-.096.287-.149.12-.067.238-.142.356-.216.094-.059.19-.116.281-.179.11-.076.215-.159.322-.241.093-.071.187-.139.276-.214.014-.012.029-.021.043-.033.066-.056.124-.118.188-.176.118-.107.237-.214.349-.328.089-.09.17-.185.253-.279.089-.1.178-.198.262-.302.093-.107.171-.217.251-.327z"/><path d="m150.636 22.5c0-12.427-10.072-22.5-22.5-22.5-12.426 0-22.5 10.073-22.5 22.5 0 6.554 2.804 12.451 7.275 16.563h30.45c4.472-4.112 7.275-10.009 7.275-16.563z"/><path d="m186.227 51.363h17.033c13.785 0 25 11.215 25 25v288.421h-6.667c-2.292 0-4.167 1.875-4.167 4.167h-3.667c-2.017 0-3.667 1.65-3.667 3.667 0 2.017 1.65 3.667 3.667 3.667h39c2.017 0 3.667-1.65 3.667-3.667 0-2.017-1.65-3.667-3.667-3.667h-3.667c0-2.292-1.875-4.167-4.167-4.167h-6.667v-288.421c0-19.299-15.701-35-35-35h-17.858c.531 1.241.826 2.605.826 4.038v5.962z"/><path d="m71.026 41.363h-17.859c-19.299 0-35 15.701-35 35v288.421h-6.667c-2.292 0-4.167 1.875-4.167 4.167h-3.666c-2.017 0-3.667 1.65-3.667 3.667 0 2.017 1.65 3.667 3.667 3.667h39c2.017 0 3.667-1.65 3.667-3.667 0-2.017-1.65-3.667-3.667-3.667h-3.667c0-2.292-1.875-4.167-4.167-4.167h-6.667v-288.421c0-13.785 11.215-25 25-25h17.032v-5.962c.001-1.433.297-2.797.828-4.038z"/><path d="m90.799 51.363h74.828v-5.962c0-1.433.296-2.797.826-4.038h-76.481c.531 1.241.826 2.605.826 4.038v5.962z"/></g></svg>