<svg id="Wedding_Hall" height="512" viewBox="0 0 64 64" width="512" xmlns="http://www.w3.org/2000/svg"><path d="m63 58h-4v-2.827c.4244-.0394.8443-.1 1.25-.2048.4766-.123.792-.5737.7451-1.063l-1.7079-17.9519c.0199-.006.0383-.0158.0578-.023.0261-.0097.051-.0185.076-.0303.3667-.1478.5415-.5276.579-.9001v-11h1c.5527 0 1-.4478 1-1v-4c-.0262-.3422-.1958-.647-.4727-.8496l-29-17.9999c-.3232-.2002-.7314-.2002-1.0547 0l-28.9999 18c-.2768.2027-.4465.5076-.4727.8496v4c0 .5522.4478 1 1 1h1v11c.0384.3716.2127.7512.5784.8995.0257.0121.0512.0211.078.0311.019.007.037.0166.0565.0225l-1.7084 17.9522c-.0464.4893.2695.9399.7456 1.063.4059.1048.8257.1653 1.25.2048v2.827h-4.0001c-.5522 0-1 .4478-1 1v4c0 .5522.4478 1 1 1h62c.5527 0 1-.4478 1-1v-4c0-.5522-.4473-1-1-1zm-52 0v-4.6566c.2168-.1744.4269-.3562.627-.5563l.0801-.0801c.2012-.2012.3071-.478.2915-.7617l-.028-.5327.6335.1259c.2603.0547.5176.0815.7861.0815 1.4688 0 2.8442-.853 3.5044-2.1729.0957-.1919.1274-.4097.0903-.6206l-2.7667-15.6977c2.8417-1.9561 5.0617-4.8058 6.2091-8.2481l.0192-.0574c.9961.7358 2.2228 1.1766 3.5536 1.1766h1.9422c.7642.6116 1.748.8976 2.7238.7749.5483 1.3115 1.8408 2.2251 3.334 2.2251s2.7861-.9136 3.334-2.2251c.9804.1257 1.9628-.1619 2.7255-.7749h1.9405c1.3309 0 2.5579-.4409 3.554-1.1769l.0192.0577c1.1475 3.4423 3.3674 6.2922 6.209 8.2483l-2.7667 15.6975c-.0381.2109-.0059.4287.0898.6206.6602 1.3198 2.0361 2.1729 3.5049 2.1729.2686 0 .5254-.0269.7754-.0791l.6442-.1282-.028.5325c-.0156.2837.0898.561.291.7617l.0801.0801c.2009.2012.4113.3832.627.5566v4.6562h-42zm-5.127-4.7817c-.0186.002-.0376.0024-.0562.0024-.2456-.0005-.4932-.0103-.7349-.0371l1.6453-17.286c.8175-.0867 1.6193-.2318 2.4008-.4364l.8479 16.1355c-.1738.1558-.3574.3003-.5591.4409-1.0063.7222-2.2295 1.1387-3.5439 1.1807zm6.5089-18.9853 2.5693 14.5766c-.4321.604-1.1655.9346-1.9463.7695l-1.1429-.2273-.7653-14.5389c.4368-.1765.8669-.3671 1.2852-.58zm-8.3819-12.233v-2h14c0 .7021.1275 1.3734.35 2zm38-3h2v1c0 2.2056-1.7939 4-4 4h-.6804c.2382-1.0452-.0032-2.1487-.6516-3 .0778-.1022.1429-.2117.2089-.3206.9844-.326 1.8383-.8845 2.5127-1.6129.2013-.0308.4009-.0666.6104-.0666zm-1-4c0 1.3099-.6384 2.486-1.6454 3.2226-.0681-.4196-.2025-.834-.4269-1.2221-.6049-1.0483-1.6642-1.6753-2.7956-1.7806.7405-.7677 1.7589-1.2199 2.8679-1.2199h2zm-7.3877 1.5347c.0186.3369.2061.6416.498.8101.293.1694.6494.1787.9502.0269.7734-.3877 1.709-.1108 2.1348.6284.4277.7407.1982 1.6914-.5225 2.1636-.2822.1846-.4521.499-.4521.8364s.1699.6519.4521.8364c.7207.4722.9502 1.4229.5225 2.1641-.0627.1085-.1392.2037-.2218.2917l-.0016.0015c-.4796.509-1.254.6647-1.9113.3347-.3008-.1519-.6572-.1426-.9502.0269-.292.1685-.4795.4731-.498.8101-.0488.8604-.7563 1.5347-1.6123 1.5347-.8555 0-1.5635-.6743-1.6118-1.5352-.019-.3369-.2065-.6411-.4985-.8101-.1543-.0889-.3272-.1338-.5-.1338-.1543 0-.3086.0356-.4507.1074-.6561.3309-1.4319.1754-1.912-.3354l-.0002-.0002c-.0829-.0883-.1596-.1838-.2225-.2928-.4277-.7412-.1982-1.6914.5229-2.1636.2822-.1846.4521-.499.4521-.8364s-.1699-.6519-.4521-.8364c-.7212-.4722-.9507-1.4224-.5229-2.1636.4272-.7407 1.3652-1.0166 2.1348-.6284.3008.1519.6582.1416.9507-.0264.292-.1689.4795-.4731.4985-.8101.0483-.8608.7563-1.5352 1.6118-1.5352.856 0 1.5635.6743 1.6123 1.5347zm-8.5405.4653c-.224.3884-.3583.8029-.4265 1.2224-1.007-.7366-1.6453-1.9125-1.6453-3.2224v-1h2c1.1098 0 2.1292.4528 2.8696 1.2216-1.1303.1063-2.1921.7297-2.7978 1.7784zm-2.4611 2.0665c.6743.7281 1.5277 1.2864 2.5117 1.6125.066.1091.1313.2187.2092.321-.6484.8513-.8897 1.9547-.6515 3h-.6801c-2.2056 0-4-1.7944-4-4v-1h2c.2098 0 .4093.0358.6107.0665zm34.663 16.8312 1.6443 17.2859c-.2236.0244-.4492.0366-.6777.0366-.0371-.0005-.0771.002-.2119-.0098-1.2158-.0342-2.4395-.4507-3.457-1.1807-.1934-.1353-.375-.2783-.5479-.4331l.8492-16.1353c.7815.2046 1.5834.3496 2.4009.4363zm-5.1352 13.454-1.1541.2298c-.7207.1484-1.5039-.1689-1.9355-.7725l2.5688-14.5764c.4183.213.8486.4037 1.2856.5803zm2.8616 5.1827c.6512.2807 1.3215.4775 2 .576v2.8896h-2zm3-21.5208c-1.4351-1.2201-3.4525-3.376-4.0195-6.21-.1074-.541-.6279-.8921-1.1768-.7842-.541.1084-.8926.6353-.7842 1.1768.5519 2.7599 2.184 4.9299 3.6718 6.4108-4.7237-1.123-8.6352-4.6014-10.2216-9.359l-.0827-.248h12.613v9.0137zm2-11.0137h-14.35c.2225-.6266.35-1.2979.35-2h14zm-28.0001-19.8231 25.4927 15.8232h-11.4927c0-.5522-.4473-1-1-1h-2.3418c.2214-.6287.3418-1.3022.3418-2v-2c0-.5522-.4473-1-1-1h-3c-1.7596 0-3.3729.7497-4.493 2.0237-.652-.6321-1.5349-1.0237-2.507-1.0237s-1.8549.3917-2.5069 1.0239c-1.1205-1.2741-2.7338-2.0239-4.4931-2.0239h-3c-.5522 0-1 .4478-1 1v2c0 .6978.1204 1.3713.3419 2h-2.3419c-.5522 0-1 .4478-1 1h-11.4927zm-13.3875 21.8232-.0827.248c-1.5856 4.7577-5.4971 8.2361-10.2213 9.3591 1.4879-1.4808 3.1201-3.6509 3.6719-6.4109.1084-.5415-.2427-1.0684-.7842-1.1768-.5459-.1099-1.0688.2427-1.1768.7842-.5641 2.8206-2.5831 4.9804-4.0195 6.2051v-9.0088h12.6125zm-11.6125 31.1093c.691-.1031 1.3588-.3015 2-.5764v3.4671h-2zm55 6.8907h-60v-2h60z"/><path d="m36 36c-1.3213 0-2.7705.4463-4 1.2153-1.2285-.769-2.6782-1.2153-4-1.2153-3.3086 0-6 2.6914-6 6 0 7.7134 9.3838 9.8872 9.7832 9.9761.0713.0161.144.0239.2168.0239s.1455-.0078.2168-.0239c.3994-.0889 9.7832-2.2627 9.7832-9.9761 0-3.3086-2.6914-6-6-6zm-4 13.9683c-1.3047-.3516-8-2.4297-8-7.9683 0-2.2056 1.7944-4 4-4 1.1226 0 2.3911.4575 3.3921 1.2241.3584.2744.8564.2744 1.2158 0 1.0015-.7666 2.27-1.2241 3.3921-1.2241 2.2061 0 4 1.7944 4 4 0 5.5386-6.6953 7.6167-8 7.9683z"/><path d="m29 21c0 1.6543 1.3457 3 3 3s3-1.3457 3-3-1.3457-3-3-3-3 1.3457-3 3zm4 0c0 .5513-.4487 1-1 1s-1-.4487-1-1 .4487-1 1-1 1 .4487 1 1z"/></svg>