<svg id="Layer_1" enable-background="new 0 0 512 512" viewBox="0 0 512 512" xmlns="http://www.w3.org/2000/svg"><path d="m461.37 271.23v-39.58c0-17.7-14.4-32.11-32.11-32.11h-147.15c-10.75 0-20.28 5.32-26.11 13.45-5.83-8.14-15.36-13.45-26.11-13.45h-147.15c-17.7 0-32.11 14.4-32.11 32.11v39.58c-20.1 2.78-35.63 20.07-35.63 40.92v130.88c0 11.58 9.42 21 21 21h109.73l-12.95 24.14c-1.57 2.92-.47 6.56 2.45 8.12.9.48 1.87.71 2.83.71 2.14 0 4.21-1.15 5.29-3.17l15.99-29.81h193.3l15.99 29.81c1.08 2.02 3.15 3.17 5.29 3.17.96 0 1.93-.23 2.83-.71 2.92-1.57 4.02-5.2 2.45-8.12l-12.95-24.14h109.75c11.58 0 21-9.42 21-21v-130.88c0-20.85-15.53-38.14-35.63-40.92zm-179.26-59.69h147.16c11.09 0 20.11 9.02 20.11 20.11v39.58c-20.1 2.78-35.63 20.07-35.63 40.92v36.69c-4.04-2.59-8.83-4.09-13.96-4.09h-123.83c-5.14 0-9.93 1.51-13.96 4.09v-117.19c0-11.09 9.02-20.11 20.11-20.11zm113.34 174.4c-4.15-7.28-11.98-12.2-20.93-12.2h-112.52v-3.03c0-7.7 6.26-13.96 13.96-13.96h123.81c7.7 0 13.96 6.26 13.96 13.96v15.23zm-61.74 23.98c-.02 0-.03 0-.05 0h-155.34-.01-40.83c-6.66 0-12.09-5.42-12.09-12.09s5.42-12.09 12.09-12.09h237.04c6.66 0 12.09 5.42 12.09 12.09s-5.42 12.09-12.09 12.09zm-217.16-23.98h-18.29v-15.23c0-7.7 6.26-13.96 13.96-13.96h123.81c7.7 0 13.96 6.26 13.96 13.96v3.03h-112.51c-8.96 0-16.78 4.92-20.93 12.2zm-33.81-174.4h147.16c11.09 0 20.11 9.02 20.11 20.11v117.19c-4.04-2.59-8.83-4.09-13.96-4.09h-123.83c-5.14 0-9.93 1.51-13.96 4.09v-36.69c0-20.85-15.53-38.14-35.63-40.92v-39.58c0-11.09 9.02-20.11 20.11-20.11zm-46.74 240.49c-4.96 0-9-4.04-9-9v-130.88c0-16.17 13.15-29.32 29.32-29.32h.62c16.17 0 29.32 13.15 29.32 29.32v79.79c0 3.31 2.69 6 6 6h21.14c.06 13.23 10.84 23.97 24.08 23.97h30.84l-16.15 30.11h-116.17zm129.79 0 16.15-30.11h148.13l16.15 30.11zm319.21-9c0 4.96-4.04 9-9 9h-116.17l-16.15-30.11h30.84c13.24 0 24.02-10.74 24.08-23.97h21.14c3.31 0 6-2.69 6-6v-79.79c0-16.17 13.15-29.32 29.32-29.32h.62c16.17 0 29.32 13.15 29.32 29.32zm-412.72-313.47c31.58 0 57.28-25.7 57.28-57.28s-25.7-57.28-57.28-57.28-57.28 25.7-57.28 57.28 25.7 57.28 57.28 57.28zm0-102.56c24.97 0 45.28 20.31 45.28 45.28s-20.31 45.28-45.28 45.28-45.28-20.31-45.28-45.28 20.31-45.28 45.28-45.28zm-6 45.28v-26.22c0-3.31 2.69-6 6-6s6 2.69 6 6v22.75l19.7 11.38c2.87 1.66 3.85 5.33 2.2 8.2-1.11 1.92-3.13 3-5.2 3-1.02 0-2.05-.26-2.99-.8l-22.7-13.11c-1.87-1.08-3.01-3.06-3.01-5.2z"/></svg>