<svg id="Layer_1" height="512" viewBox="0 0 50 50" width="512" xmlns="http://www.w3.org/2000/svg"><g><g style="fill:none;stroke:#000;stroke-linecap:round;stroke-linejoin:round;stroke-miterlimit:10;stroke-width:2"><g><g><path d="m41.9 31v-3.1"/><path d="m41.9 37.9v-3.1"/><path d="m17 31v-3.1"/><path d="m17 37.9v-3.1"/></g><path d="m42.9 27.9h-26.9c-1.1 0-1.9-.9-1.9-1.9 0-1.1.9-1.9 1.9-1.9h26.9c1.1 0 1.9.9 1.9 1.9 0 1-.8 1.9-1.9 1.9z"/><path d="m42.9 34.8h-26.9c-1.1 0-1.9-.9-1.9-1.9 0-1.1.9-1.9 1.9-1.9h26.9c1.1 0 1.9.9 1.9 1.9 0 1.1-.8 1.9-1.9 1.9z"/></g><path d="m44 42.6h-29.1c-1.4 0-2.5-1-2.5-2.3 0-1.3 1.1-2.3 2.5-2.3h29.1c1.4 0 2.5 1 2.5 2.3 0 1.2-1.1 2.3-2.5 2.3z"/><path d="m15.1 48v-5.4"/><path d="m43.8 42.6v5.4"/><path d="m9.8 48h-6.3l.9-5.4h4.5z"/></g><g><path d="m16.4 9.8c0-1.7-1.4-3.1-3.1-3.1s-3.1 1.4-3.1 3.1z" style="fill:none;stroke:#000;stroke-linecap:round;stroke-linejoin:round;stroke-miterlimit:10;stroke-width:2"/><g><g><g><path d="m13.4 14.2v.9" style="fill:none;stroke:#000;stroke-linecap:round;stroke-linejoin:round;stroke-miterlimit:10;stroke-width:2"/></g></g><g><g><path d="m15.4 12.8.4.7" style="fill:none;stroke:#000;stroke-linecap:round;stroke-linejoin:round;stroke-miterlimit:10;stroke-width:2"/></g></g><g><g><path d="m11.3 12.8-.4.7" style="fill:none;stroke:#000;stroke-linecap:round;stroke-linejoin:round;stroke-miterlimit:10;stroke-width:2"/></g></g></g></g><path d="m13.4 6.8v-1.4c0-1.9-1.5-3.4-3.4-3.4-1.9 0-3.4 1.5-3.4 3.4v4.9 32.3" style="fill:none;stroke:#000;stroke-linecap:round;stroke-linejoin:round;stroke-miterlimit:10;stroke-width:2"/></g></svg>