<?xml version="1.0" encoding="UTF-8" standalone="no"?>
<!-- Created with Inkscape (http://www.inkscape.org/) -->

<svg
   version="1.1"
   id="svg114"
   xml:space="preserve"
   width="682.66669"
   height="682.66669"
   viewBox="0 0 682.66669 682.66669"
   xmlns="http://www.w3.org/2000/svg"
   xmlns:svg="http://www.w3.org/2000/svg"><defs
     id="defs118"><clipPath
       clipPathUnits="userSpaceOnUse"
       id="clipPath128"><path
         d="M 0,512 H 512 V 0 H 0 Z"
         id="path126" /></clipPath></defs><g
     id="g120"
     transform="matrix(1.3333333,0,0,-1.3333333,0,682.66667)"><g
       id="g122"><g
         id="g124"
         clip-path="url(#clipPath128)"><g
           id="g130"
           transform="translate(435,225)"><path
             d="m 0,0 v -180 c 0,-16.569 -13.432,-30 -30,-30 h -360 c -16.568,0 -30,13.431 -30,30 V 0"
             style="fill:none;stroke:#000000;stroke-width:30;stroke-linecap:round;stroke-linejoin:round;stroke-miterlimit:10;stroke-dasharray:none;stroke-opacity:1"
             id="path132" /></g><g
           id="g134"
           transform="translate(435,135)"><path
             d="M 0,0 H 32 C 48.568,0 62,-13.431 62,-30"
             style="fill:none;stroke:#000000;stroke-width:30;stroke-linecap:round;stroke-linejoin:round;stroke-miterlimit:10;stroke-dasharray:none;stroke-opacity:1"
             id="path136" /></g><g
           id="g138"
           transform="translate(497,15)"><path
             d="M 0,0 V 30"
             style="fill:none;stroke:#000000;stroke-width:30;stroke-linecap:round;stroke-linejoin:round;stroke-miterlimit:10;stroke-dasharray:none;stroke-opacity:1"
             id="path140" /></g><g
           id="g142"
           transform="translate(15,195)"><path
             d="m 0,0 c 35,0 35,-30 70,-30 35,0 35,30 70,30 35,0 35,-30 70,-30 35,0 35,30 70,30 35,0 35,-30 70,-30 35,0 35,30 70,30"
             style="fill:none;stroke:#000000;stroke-width:30;stroke-linecap:round;stroke-linejoin:round;stroke-miterlimit:10;stroke-dasharray:none;stroke-opacity:1"
             id="path144" /></g><g
           id="g146"
           transform="translate(361,437)"><path
             d="M 0,0 H -47.754 C -53.952,17.437 -70.435,30 -90,30 -109.565,30 -126.048,17.437 -132.246,0 H -135 c 0,33.137 -26.863,60 -60,60 -33.137,0 -60,-26.863 -60,-60 h -15 c -24.853,0 -45,-20.147 -45,-45 0,-24.853 20.147,-45 45,-45 H 0 c 24.853,0 45,20.147 45,45 C 45,-20.147 24.853,0 0,0 Z"
             style="fill:none;stroke:#000000;stroke-width:30;stroke-linecap:round;stroke-linejoin:round;stroke-miterlimit:10;stroke-dasharray:none;stroke-opacity:1"
             id="path148" /></g><g
           id="g150"
           transform="translate(226,256)"><path
             d="M 0,0 V 30"
             style="fill:none;stroke:#000000;stroke-width:30;stroke-linecap:round;stroke-linejoin:round;stroke-miterlimit:10;stroke-dasharray:none;stroke-opacity:1"
             id="path152" /></g><g
           id="g154"
           transform="translate(286,256)"><path
             d="M 0,0 V 30"
             style="fill:none;stroke:#000000;stroke-width:30;stroke-linecap:round;stroke-linejoin:round;stroke-miterlimit:10;stroke-dasharray:none;stroke-opacity:1"
             id="path156" /></g><g
           id="g158"
           transform="translate(346,256)"><path
             d="M 0,0 V 30"
             style="fill:none;stroke:#000000;stroke-width:30;stroke-linecap:round;stroke-linejoin:round;stroke-miterlimit:10;stroke-dasharray:none;stroke-opacity:1"
             id="path160" /></g><g
           id="g162"
           transform="translate(166,256)"><path
             d="M 0,0 V 30"
             style="fill:none;stroke:#000000;stroke-width:30;stroke-linecap:round;stroke-linejoin:round;stroke-miterlimit:10;stroke-dasharray:none;stroke-opacity:1"
             id="path164" /></g><g
           id="g166"
           transform="translate(106,256)"><path
             d="M 0,0 V 30"
             style="fill:none;stroke:#000000;stroke-width:30;stroke-linecap:round;stroke-linejoin:round;stroke-miterlimit:10;stroke-dasharray:none;stroke-opacity:1"
             id="path168" /></g></g></g></g></svg>
