<svg id="Layer_1" enable-background="new 0 0 500 500" viewBox="0 0 500 500" xmlns="http://www.w3.org/2000/svg"><path clip-rule="evenodd" d="m376.611 370.945 14.889-8.596c.423-.244.568-.788.324-1.211l-25.485-44.141c-.163-.282-.442-.443-.767-.443h-34.927c-.325 0-.605.161-.767.443l-16.46 28.509c-.239.414-.765.563-1.186.337-19.751-10.592-43.635-10.591-63.386 0-.421.226-.947.077-1.186-.337l-16.46-28.509c-.163-.282-.442-.443-.767-.443h-48.443c-.325 0-.605.161-.767.443l-16.46 28.509c-.239.414-.765.563-1.186.337-19.751-10.591-43.635-10.591-63.386 0-.421.226-.947.077-1.186-.337l-16.529-28.629c-.151-.261-.399-.417-.7-.44-9.345-.717-18.256-2.51-25.084-6.644-14.77-8.943-17.562-31.431-17.652-52.363-.002-.488.394-.887.881-.89l68.156-.372c7.317-.04 13.609 1.881 19.656 6.001l35.035 23.872c.154.105.313.154.499.154h261.183c.474 0 .863.372.885.845.24 5.231.279 11.932.01 18.465-.254 6.175-5.334 11.049-11.514 11.049-1.443 0-2.953-.259-3.358.443-.163.282-.163.604 0 .886l14.067 24.366c.244.423.788.568 1.211.324l10.941-6.317c.423-.244.966-.098 1.21.324l21.755 37.681c2.685 4.651 1.082 10.634-3.569 13.32l-44.728 25.823c-4.651 2.685-10.634 1.082-13.32-3.569l-21.755-37.681c-.242-.421-.097-.965.326-1.209zm-96.073-19.743c-29.75 0-53.868 24.117-53.868 53.868 0 29.75 24.118 53.868 53.868 53.868s53.868-24.118 53.868-53.868c0-29.751-24.118-53.868-53.868-53.868zm0 31.368c-12.426 0-22.499 10.073-22.499 22.499s10.073 22.499 22.499 22.499 22.499-10.073 22.499-22.499c0-12.425-10.073-22.499-22.499-22.499zm-148.655-31.368c-29.75 0-53.868 24.117-53.868 53.868 0 29.75 24.118 53.868 53.868 53.868s53.868-24.118 53.868-53.868c0-29.751-24.117-53.868-53.868-53.868zm0 31.368c-12.426 0-22.499 10.073-22.499 22.499s10.073 22.499 22.499 22.499 22.499-10.073 22.499-22.499c0-12.425-10.073-22.499-22.499-22.499zm53.351-274.249-.003.009c-9.374 16.366-23.402 33.17-42.086 50.413-.299.276-.374.703-.185 1.063 25.578 48.913 73.852 74.524 144.819 76.831.211.007.393-.051.562-.178 17.27-12.976 26.773-24.671 28.511-35.08.087-.52-.29-.996-.817-1.03l-4.873-.278c-10.692-1.228-20.921-3.43-30.688-6.603-1.175-.382-.945 1.094-2.777 2.618l-18.743 15.587c-2.811 2.338-6.986 1.954-9.323-.857-2.338-2.811-1.954-6.986.857-9.323l14.957-12.439c.505-.419.397-1.217-.2-1.488-6.797-3.085-13.346-6.696-19.646-10.828-.792-.519-1.279.363-1.883.865l-19.391 16.125c-2.811 2.338-6.986 1.954-9.323-.857-2.338-2.811-1.954-6.986.857-9.323l17.395-14.465c.432-.359.427-1.017-.009-1.37-6.697-5.423-13.082-11.502-19.154-18.24-.319-.353-.859-.392-1.225-.088l-25.688 21.362c-2.811 2.338-6.986 1.954-9.323-.857-2.338-2.811-1.954-6.986.857-9.323l25.685-21.359c.366-.305.426-.845.135-1.222-6.885-8.941-13.317-18.83-19.298-29.665zm-106.05-37.635c-8.904 54.148-4.229 111.36 14.021 171.632.115.382.455.632.854.63l13.946-.076c10.003-.055 18.949 2.676 27.215 8.309l31.647 21.564c.154.105.313.154.499.154h254.978c.567 0 .986-.518.867-1.072-8.583-40.003-39.281-63.359-92.103-70.061-.479-.061-.92.274-.989.752-2.988 20.507-21.98 35.73-37.54 47.38-.48.359-3.832.073-4.907.039-65.582-2.067-125.393-23.819-156.837-84.627l-4.354-8.421c-.186-.36-.111-.785.187-1.059l6.979-6.416c14.77-13.578 29.329-29.327 39.505-46.758l3.801-9.907c.089-.234.081-.468-.026-.695-7.144-15.124-13.542-31.814-19.191-50.081-.108-.35-.401-.588-.766-.621-23.276-2.115-42.507 7.431-57.692 28.638-.176.245-.438.377-.74.37l-18.458-.415c-.445-.011-.824.303-.896.741zm-14.31-1.083c.54.012.939.491.855 1.024-9.136 57.831-2.851 115.541 13.476 171.271.167.568-.254 1.132-.846 1.136l-38.138.208c-.507.003-.908-.411-.891-.918.166-4.717.357-9.115.434-12.97l3.187-159.356c.01-.493.413-.879.906-.868z" fill-rule="evenodd"/></svg>