<svg viewBox="0 0 24 24" xmlns="http://www.w3.org/2000/svg"><g id="Layer_2" data-name="Layer 2"><path d="m12 2.25a9.75 9.75 0 1 0 9.75 9.75 9.76 9.76 0 0 0 -9.75-9.75zm0 18a8.25 8.25 0 1 1 8.25-8.25 8.26 8.26 0 0 1 -8.25 8.25zm4.19-3.45a.75.75 0 0 1 -.69.45.8.8 0 0 1 -.3-.06l-7-3a.75.75 0 0 1 .3-1.44h2a2.24 2.24 0 0 0 2.11-1.5h-4.11a.75.75 0 0 1 0-1.5h4.11a2.24 2.24 0 0 0 -2.11-1.5h-2a.75.75 0 0 1 0-1.5h7a.75.75 0 0 1 0 1.5h-2a3.68 3.68 0 0 1 .69 1.5h1.31a.75.75 0 0 1 0 1.5h-1.33a3.76 3.76 0 0 1 -2.47 2.8l4.1 1.76a.75.75 0 0 1 .39.99z"/></g></svg>