<svg id="Layer_1" height="512" viewBox="0 0 544.4124 201.4305" width="512" xmlns="http://www.w3.org/2000/svg"><g><path d="m195.0696 72.1851-7.8718-5.9604-18.974 12.9697c-.96.6566-2.0266 1.0965-3.1702 1.3083-2.3257.4308-4.731-.1525-6.5981-1.6003l-5.4098-4.1924c-1.3827 2.0039-2.7467 4.0768-4.0736 6.1965h43.0083z"/><path d="m345.9831 78.6013 10.8425-5.0244-20.5334-.3182c-5.0989-.08-9.1843-4.2927-9.1056-9.3922.0077-.4876.0581-.9667.1395-1.437-3.7699 0-7.644 0-11.3958 0-16.6136-9.598-31.8472-16.6401-42.4165-16.4536-10.5693-.1865-25.803 6.8557-42.4165 16.4536-4.4656 0-9.1957 0-13.7766 0l8.7297 8.4152c18.5525-11.0769 35.8319-19.6246 47.4634-19.4193 15.822-.2792 42.0914 15.6317 67.8055 32.0839.852-2.093 2.4569-3.8852 4.6638-4.908z"/><path d="m544.3869 161.455c-.0947-2.2715-.4482-4.2036-1.0557-5.6567-.3779-.9038-.8535-1.6206-1.4238-2.1177.0029.0024.0059.0049.0088.0073-.0049-.0049-.0107-.0098-.0166-.0146v-.0005c-34.6631-30.3926-69.3242-60.7851-103.9873-91.1782-.0205-.0181-.042-.0322-.0645-.043-.0215-.0107-.0449-.0171-.0684-.0205-.0225-.0024-.0459-.0015-.0703.0029.0039-.001.0088-.002.0127-.0024.0107-.0015.0205-.002.0303-.002-4.9287 0-11.501 0-16.4297 0-3.2234 0-6.799 0-10.4944 0 3.2124 5.3756 6.1431 11.5591 8.3511 18.4767h14.1871l77.2843 71.3033h-478.8703l71.4265-65.8987c.0801-.6591.177-1.3301.3105-2.0267l.0322-.166.0459-.1636c2.4094-8.5692 4.9844-15.3185 8.4263-21.5249-1.8604 0-3.6615 0-5.3604 0 .0098 0 .0195.0005.0293.002.0039.0005.0088.0015.0127.0024-.0234-.0044-.0479-.0054-.0703-.0029-.0234.0034-.0459.0098-.0684.0205s-.0439.0249-.0645.043c-1.9717 1.729-4.6016 4.0347-6.5732 5.7642-1.0518.9224-2.4551 2.1519-3.5068 3.0742-2.2471 1.9707-5.2441 4.5986-7.4922 6.5698-2.459 2.1558-5.7383 5.0308-8.1973 7.187-1.3164 1.1543-3.0723 2.6938-4.3887 3.8486-2.8271 2.4785-6.5957 5.7832-9.4229 8.2617-21.4688 18.8242-42.9375 37.6484-64.4063 56.4726v.0005c-.0059.0049-.0117.0098-.0176.0146.0029-.0024.0068-.0049.0098-.0073-.5713.4971-1.0469 1.2139-1.4238 2.1177-.6074 1.4531-.9619 3.3853-1.0557 5.6567-.0938 2.2656.0703 4.8633.4961 7.6523.4248 2.7754 1.1074 5.7354 2.0508 8.7412l1.6914 5.3896c.8447 2.6904 1.8281 5.1831 2.8896 7.4043 1.0557 2.2075 2.1895 4.1475 3.3438 5.7505 1.1465 1.5938 2.3154 2.8555 3.4482 3.7173 1.1279.8574 2.2227 1.3203 3.2305 1.3203h510.0606c1.0078 0 2.1025-.4629 3.2305-1.3203 1.1328-.8618 2.3008-2.1235 3.4482-3.7173 1.1543-1.603 2.2881-3.543 3.3438-5.7505 1.0615-2.2212 2.0449-4.7139 2.8896-7.4043l1.6914-5.3896c.9434-3.0059 1.626-5.9658 2.0498-8.7412.427-2.7891.5911-5.3867.4973-7.6523zm-437.666-99.0176c.0107.0024.0215.0054.0313.0093.0107.0039.0215.0083.0322.0132-.0254-.0117-.0508-.02-.0742-.0249.0038.001.0067.0015.0107.0024zm-104.168 91.2046c.0693-.0581.1396-.1162.2119-.168.0195-.0146.042-.0264.0625-.0405-.0937.0644-.1855.1338-.2744.2085zm.3808-.2774c.0371-.0239.0742-.0513.1123-.0732.0439-.0254.0898-.0454.1348-.0684-.084.0435-.167.0904-.2471.1416zm.3536-.1953c.0186-.0088.0361-.0195.0547-.0278.0996-.0439.2012-.083.3047-.1157-.1231.039-.2422.0888-.3594.1435zm537.9443.0537c.0439.0229.0908.043.1338.0684.0391.022.0762.0493.1133.0732-.0801-.0512-.1631-.0981-.2471-.1416zm.3535.2105c.0205.0142.042.0259.0625.0405.0723.0518.1426.1099.2119.1685-.0888-.0752-.1806-.1451-.2744-.209z"/><path d="m196.0183 84.2847c-6.6456 4.2753-13.1556 8.4492-19.3378 12.2477-.021 2.2712-.5983 4.4879-1.6711 6.4719 8.0322-4.8918 16.6611-10.4756 25.4468-16.1249z"/><path d="m362.496 91.6307c-.0889-.0562-.1771-.1119-.2659-.1682l-4.9531 2.2952c1.2072.7723 2.4065 1.5368 3.5991 2.2946.5087-1.5367 1.0559-3.0101 1.6199-4.4216z"/><ellipse cx="265.995" cy="63.649" rx="3" ry="3" transform="matrix(.729 -.684 .684 .729 28.492 199.284)"/><path d="m294.1314 71.3384c.2974-1.6299-.7828-3.1923-2.4128-3.4897s-3.1924.783-3.4897 2.4129c-.2972 1.6299.783 3.1923 2.413 3.4897 1.6297.2973 3.1922-.783 3.4895-2.4129z"/><path d="m307.7389 71.7446c.2972-1.6299-.783-3.1923-2.413-3.4897s-3.1924.783-3.4896 2.4129c-.2974 1.6299.7828 3.1923 2.4128 3.4897s3.1925-.7829 3.4898-2.4129z"/><path d="m241.8899 76.2264c1.63.2974 3.1923-.783 3.4896-2.4129s-.783-3.1923-2.4128-3.4897-3.1924.783-3.4897 2.4129.7829 3.1923 2.4129 3.4897z"/><path d="m283.1298 61.5467c.199-1.0902-.5237-2.1352-1.6138-2.3341-1.0903-.1989-2.1353.5237-2.3342 1.6139s.5237 2.1353 1.6139 2.3341c1.0902.1989 2.1352-.5237 2.3341-1.6139z"/><path d="m257.7528 65.0989c.199-1.0902-.5237-2.1353-1.6138-2.3341-1.0903-.1989-2.1353.5237-2.3342 1.6139s.5237 2.1352 1.6139 2.3341 2.1353-.5237 2.3341-1.6139z"/><path d="m252.8312 85.991c-1.0902-.1989-2.1353.5237-2.3341 1.6139s.5237 2.1352 1.6139 2.3341 2.1353-.5237 2.3341-1.6139-.5237-2.1352-1.6139-2.3341z"/><path d="m243.1686 86.988c1.0902.1989 2.1353-.5237 2.3341-1.6139s-.5236-2.1353-1.6139-2.3341c-1.0901-.1989-2.1353.5237-2.3341 1.6139s.5237 2.1352 1.6139 2.3341z"/><path d="m334.501 91.2079c.1989-1.0902-.5237-2.1352-1.6139-2.3341s-2.1353.5237-2.3341 1.6139.5237 2.1353 1.6139 2.3341c1.0902.1989 2.1353-.5237 2.3341-1.6139z"/><path d="m273.6444 99.7894c.2974-1.6299-.7828-3.1923-2.4128-3.4897-1.6299-.2974-3.1924.783-3.4897 2.4129-.2972 1.6299.783 3.1923 2.413 3.4897s3.1922-.7829 3.4895-2.4129z"/><path d="m103.8405 111.4637c.2974-1.6299-.783-3.1924-2.4128-3.4897-1.6301-.2974-3.1924.7829-3.4897 2.4128-.2974 1.63.783 3.1924 2.4128 3.4897s3.1923-.7829 3.4897-2.4128z"/><path d="m195.2804 104.1398c.2974-1.63-.783-3.1924-2.4128-3.4897-1.63-.2974-3.1924.7829-3.4897 2.4128s.783 3.1924 2.4128 3.4897c1.63.2974 3.1924-.7828 3.4897-2.4128z"/><path d="m207.279 99.6268c.199-1.0902-.5236-2.1352-1.6138-2.3341s-2.1353.5237-2.3342 1.6139c-.1987 1.0902.5237 2.1352 1.614 2.3341 1.0901.1989 2.1352-.5237 2.334-1.6139z"/><path d="m237.912 93.441c-.1989 1.0902.5237 2.1353 1.6139 2.3342s2.1353-.5237 2.3341-1.6139c.199-1.0902-.5237-2.1353-1.6139-2.3341-1.0902-.1989-2.1351.5236-2.3341 1.6138z"/><path d="m320.8112 82.9317c1.0902.1989 2.1353-.5237 2.3341-1.6139s-.5237-2.1353-1.6139-2.3341c-1.0902-.1989-2.1353.5237-2.3341 1.6139s.5237 2.1352 1.6139 2.3341z"/><path d="m219.8929 112.2751c-1.0902-.1989-2.1353.5237-2.3341 1.614-.199 1.0901.5237 2.1353 1.6138 2.334 1.0903.199 2.1353-.5237 2.3342-1.6138.1988-1.0903-.5237-2.1353-1.6139-2.3342z"/><path d="m222.9792 104.3071c1.0903.1989 2.1353-.5237 2.3342-1.6139s-.5237-2.1353-1.6139-2.3341c-1.0902-.1989-2.1353.5237-2.3341 1.6139-.199 1.0902.5237 2.1352 1.6138 2.3341z"/><path d="m186.9162 111.2899c.199-1.0902-.5237-2.1353-1.6138-2.3342-1.0903-.1989-2.1353.5237-2.3342 1.6139-.1987 1.0902.5237 2.1353 1.614 2.3342 1.0901.1989 2.1352-.5237 2.334-1.6139z"/><path d="m56.2953 138.6653c-1.1128 1.2275-1.0198 3.1248.2078 4.2375 1.2275 1.1129 3.1248 1.0199 4.2375-.2076s1.0198-3.1248-.2078-4.2375c-1.2273-1.1129-3.1246-1.02-4.2375.2076z"/><path d="m82.4333 116.8994c-1.1128 1.2274-1.0198 3.1246.2078 4.2375 1.2275 1.1128 3.1248 1.0199 4.2375-.2076s1.0198-3.1248-.2078-4.2375c-1.2274-1.1128-3.1246-1.0199-4.2375.2076z"/><path d="m77.5065 132.8824c-.7444.821-.6821 2.0901.1389 2.8345.821.7443 2.0901.6821 2.8344-.1389s.6821-2.0901-.1389-2.8344-2.09-.6822-2.8344.1388z"/><path d="m90.8113 142.639c.7443-.821.6821-2.0901-.1389-2.8345-.821-.7443-2.09-.6821-2.8344.1389s-.6821 2.0901.1389 2.8344 2.0901.6822 2.8344-.1388z"/><path d="m207.6493 138.7186c.7443-.821.6821-2.09-.1389-2.8342-.821-.7444-2.0901-.6823-2.8345.1388-.7443.821-.6821 2.09.1389 2.8344s2.0901.6821 2.8345-.139z"/><path d="m160.2868 133.9335c-1.1128 1.2275-1.0198 3.1248.2076 4.2375 1.2275 1.1128 3.1248 1.0198 4.2375-.2076 1.1129-1.2275 1.0199-3.1248-.2076-4.2375-1.2275-1.113-3.1247-1.02-4.2375.2076z"/><path d="m114.1901 136.856c-1.1129 1.2275-1.0199 3.1248.2075 4.2377 1.2275 1.1128 3.1248 1.0198 4.2375-.2078 1.1129-1.2275 1.02-3.1248-.2075-4.2375s-3.1247-1.0199-4.2375.2076z"/><path d="m134.6725 141.2772c-1.1128 1.2275-1.0199 3.1248.2076 4.2375 1.2274 1.1129 3.1246 1.0199 4.2375-.2075 1.1128-1.2275 1.0199-3.1248-.2076-4.2375-1.2275-1.1129-3.1247-1.0199-4.2375.2075z"/><path d="m232.0517 133.4558c1.1128-1.2275 1.0199-3.1248-.2076-4.2375-1.2274-1.1129-3.1246-1.0199-4.2375.2076-1.1128 1.2275-1.0199 3.1248.2076 4.2375s3.1247 1.0199 4.2375-.2076z"/><path d="m98.8726 129.2832c-.7443.8209-.6821 2.09.1388 2.8344.821.7443 2.0901.6821 2.8345-.1389.7443-.821.6821-2.0901-.1389-2.8344s-2.0901-.6821-2.8344.1389z"/><path d="m168.1442 124.9535c.7444-.821.6823-2.0901-.1388-2.8344s-2.09-.6821-2.8344.1389-.6821 2.09.1389 2.8344 2.09.6821 2.8343-.1389z"/><path d="m181.4259 137.0232c-.7443.821-.6821 2.09.1389 2.8344s2.0901.6821 2.8345-.1389c.7443-.821.6821-2.09-.1389-2.8342-.821-.7445-2.0901-.6824-2.8345.1387z"/><path d="m241.4578 130.4626c.7443-.8209.6821-2.09-.1389-2.8344-.821-.7443-2.09-.6821-2.8344.1389s-.6821 2.0901.1389 2.8344 2.0901.6822 2.8344-.1389z"/><path d="m201.4938 116.2076c-.7444.821-.6823 2.09.1388 2.8342.821.7444 2.09.6821 2.8344-.1389.7444-.8209.6821-2.0898-.1389-2.8342s-2.09-.6821-2.8343.1389z"/><path d="m259.7133 119.2781c1.1128-1.2275 1.0198-3.1248-.2078-4.2375-1.2275-1.1129-3.1248-1.0199-4.2375.2076s-1.0198 3.1248.2078 4.2375c1.2274 1.1128 3.1246 1.0199 4.2375-.2076z"/><path d="m284.3133 133.078c.7443-.821.6821-2.0901-.1388-2.8344-.821-.7443-2.0901-.6823-2.8345.1388-.7443.821-.6821 2.0901.1389 2.8345.8211.7443 2.0901.6821 2.8344-.1389z"/><path d="m323.3788 92.4142c.7443-.821.6821-2.09-.1389-2.8344s-2.0901-.6821-2.8344.1389-.6821 2.09.1388 2.8344c.8211.7443 2.0901.6821 2.8345-.1389z"/><path d="m487.1112 144.6636c.7444-.8209.6821-2.09-.1389-2.8344-.821-.7443-2.0901-.6821-2.8344.1389s-.6821 2.0901.1389 2.8344 2.0901.6821 2.8344-.1389z"/><path d="m458.8852 124.1359c1.1129-1.2275 1.02-3.1248-.2075-4.2375s-3.1248-1.0198-4.2375.2076c-1.1129 1.2275-1.0199 3.1248.2075 4.2377 1.2275 1.1127 3.1247 1.0197 4.2375-.2078z"/><path d="m369.5419 138.6725c-1.1128 1.2275-1.0198 3.1248.2076 4.2375 1.2275 1.1128 3.1248 1.0198 4.2377-.2076 1.1128-1.2275 1.0198-3.1248-.2078-4.2375-1.2275-1.113-3.1247-1.02-4.2375.2076z"/><path d="m357.7187 134.3026c1.1128-1.2275 1.0198-3.1248-.2078-4.2375-1.2275-1.1129-3.1248-1.02-4.2375.2075s-1.0198 3.1248.2078 4.2375c1.2273 1.1129 3.1245 1.0199 4.2375-.2075z"/><path d="m336.4688 136.1359c1.1128-1.2275 1.0199-3.1248-.2076-4.2375s-3.1248-1.0198-4.2375.2076c-1.1128 1.2275-1.0199 3.1248.2076 4.2377 1.2273 1.1127 3.1246 1.0197 4.2375-.2078z"/><path d="m380.3412 126.765c-1.1128 1.2275-1.0198 3.1248.2078 4.2375s3.1248 1.0198 4.2375-.2078 1.0198-3.1248-.2078-4.2375c-1.2274-1.1127-3.1246-1.0197-4.2375.2078z"/><path d="m440.7106 97.3026c-.7126.7859-.6531 2.0007.1328 2.7132.786.7125 2.0007.653 2.7134-.1329.7124-.7859.653-2.0007-.1331-2.7133-.7859-.7125-2.0007-.6529-2.7131.133z"/><path d="m389.4973 139.2069c-.7125.786-.653 2.0007.1329 2.7133.786.7125 2.0007.653 2.7134-.1329.7124-.7859.6528-2.0007-.1331-2.7133s-2.0006-.653-2.7132.1329z"/><path d="m319.6884 142.6007c.7125-.7859.6531-2.0007-.1329-2.7131-.786-.7126-2.0007-.6531-2.7133.1328-.7125.786-.653 2.0007.1331 2.7134.7858.7124 2.0006.6528 2.7131-.1331z"/><path d="m410.006 141.2772c-1.1128 1.2275-1.0198 3.1248.2076 4.2375 1.2275 1.1129 3.1248 1.0199 4.2375-.2075 1.1129-1.2275 1.0199-3.1248-.2076-4.2375-1.2275-1.1129-3.1247-1.0199-4.2375.2075z"/><path d="m288.7265 91.0969c1.1128-1.2275 1.0198-3.1247-.2078-4.2375-1.2274-1.1128-3.1246-1.0198-4.2375.2077-1.1128 1.2275-1.0198 3.1247.2078 4.2375 1.2275 1.1128 3.1247 1.0198 4.2375-.2077z"/><path d="m398.7596 129.2732c-.7443.821-.6821 2.09.1389 2.8344.8209.7444 2.09.6821 2.8344-.1389.7443-.821.6821-2.09-.1389-2.8342-.8211-.7445-2.0902-.6824-2.8344.1387z"/><path d="m302.5417 136.9098c.7444-.821.6821-2.09-.1389-2.8342-.821-.7444-2.0898-.6823-2.8342.1388s-.6821 2.09.1389 2.8344 2.0899.682 2.8342-.139z"/><path d="m269.3263 112.726c-.7444.821-.6821 2.09.1389 2.8344.821.7443 2.0901.6821 2.8344-.1389s.6821-2.0901-.1389-2.8344c-.8211-.7443-2.09-.6821-2.8344.1389z"/><path d="m433.0734 96.3315c-.7444.821-.6821 2.09.1389 2.8343s2.09.6821 2.8342-.1389c.7444-.821.6821-2.09-.1388-2.8344-.821-.7443-2.0899-.6821-2.8343.139z"/><path d="m189.2387 124.106c-1.1128 1.2275-1.0198 3.1248.2078 4.2377 1.2275 1.1128 3.1248 1.0198 4.2375-.2078s1.0198-3.1248-.2078-4.2375c-1.2274-1.1129-3.1246-1.0199-4.2375.2076z"/><path d="m299.2086 116.1152c1.1128-1.2275 1.0198-3.1248-.2078-4.2375-1.2274-1.1129-3.1246-1.0198-4.2375.2076-1.1128 1.2275-1.0198 3.1248.2078 4.2375s3.1248 1.02 4.2375-.2076z"/><path d="m305.1563 100.1603c.7125-.7859.653-2.0007-.1329-2.7132s-2.0007-.653-2.7133.1329-.653 2.0007.1329 2.7133c.786.7126 2.0008.653 2.7133-.133z"/><path d="m335.7746 112.3652c1.1128-1.2275 1.0199-3.1248-.2076-4.2375-1.2274-1.1129-3.1246-1.0198-4.2375.2076-1.1128 1.2275-1.0199 3.1248.2076 4.2375 1.2275 1.1129 3.1247 1.02 4.2375-.2076z"/><path d="m218.0268 140.5232c-.7444.821-.6821 2.09.1389 2.8344s2.0901.6821 2.8344-.1389.6821-2.09-.1389-2.8342c-.8211-.7445-2.0901-.6824-2.8344.1387z"/><path d="m317.7965 124.8514c-.821-.7443-2.0901-.6821-2.8344.1389s-.6821 2.0901.1389 2.8344c.8209.7443 2.09.6821 2.8344-.1388.7443-.821.6822-2.0901-.1389-2.8345z"/><path d="m434.2312 123.3436c1.2274 1.1128 3.1246 1.0198 4.2375-.2078 1.1128-1.2275 1.0199-3.1248-.2076-4.2375s-3.1248-1.0198-4.2375.2076c-1.1128 1.2276-1.0199 3.1248.2076 4.2377z"/><path d="m429.0951 86.0038c-.8629.952-.7908 2.4233.1611 3.2863s2.4233.7909 3.2863-.1611c.8629-.9519.7909-2.4232-.161-3.2863-.9519-.8629-2.4233-.7908-3.2864.1611z"/><path d="m442.5902 129.2526c-.826.9114-.7571 2.3198.1543 3.1459.9111.8262 2.3196.7572 3.1458-.1542.8262-.9113.7571-2.3197-.1541-3.1458-.9113-.8262-2.3198-.7572-3.146.1541z"/><path d="m466.1344 140.9608c-1.1128 1.2275-1.0198 3.1248.2078 4.2375 1.2274 1.1128 3.1246 1.0198 4.2375-.2078 1.1128-1.2274 1.0198-3.1248-.2078-4.2375s-3.1247-1.0197-4.2375.2078z"/><path d="m472.9936 132.9562c.863-.9519.7909-2.4231-.161-3.2861-.952-.863-2.4232-.791-3.2863.161s-.7909 2.4232.161 3.2863c.952.8629 2.4232.7908 3.2863-.1612z"/><path d="m444.9355 144.8229c.9519.863 2.4233.7909 3.2864-.1611.8629-.9519.7908-2.4232-.1611-3.2861-.9519-.863-2.4233-.791-3.2863.161-.863.9518-.7909 2.4231.161 3.2862z"/><path d="m428.318 132.5822c.9519.863 2.4232.791 3.2861-.1609.863-.952.791-2.4233-.1609-3.2864-.952-.863-2.4233-.7908-3.2864.1611s-.7907 2.4232.1612 3.2862z"/><path d="m175.4313 46.5418-2.7701 3.6585 4.0623 3.0759 3.9952-2.7309z"/><path d="m231.1109 91.5793c3.8658-5.1053-4.4281-14.569-4.4281-14.569l-16.1208-15.5405-7.9746 5.6342-8.5192-6.4505c-.5913.9619-1.3834 1.8203-2.374 2.4976l-1.0139.6931 9.137 6.9184c-1.1844 3.3439-3.2601 9.2039-3.2601 9.2039l19.3297 11.3016c0-.0002 11.3581 5.4167 15.224.3112z"/><path d="m172.1593 0c-11.5477 0-20.9092 9.3603-20.9092 20.9101 0 11.5469 9.3615 20.9102 20.9092 20.9102 11.5498 0 20.9093-9.3633 20.9093-20.9102 0-11.5498-9.3595-20.9101-20.9093-20.9101zm-8.6172 26.1812s12.1472 6.4269 21.7766 3.798c.0001 0-13.6118 14.6717-21.7766-3.798z"/><path d="m172.1325 93.1054c-1.4326-4.1533-5.4424-6.8828-9.7969-6.7339l-21.5039.7378c2.6301-5.2283 5.8687-10.2453 9.051-14.8507l-11.0208-8.5407c-1.7524-1.3588-2.8711-3.3177-3.1494-5.5176-.2794-2.1998.3147-4.3757 1.6726-6.1279 1.2507-1.6122 3.0425-2.7049 5.0466-3.0761 2.3237-.4304 4.7288.152 6.5977 1.5984l10.3572 8.027c3.0957-6.1224 2.6145-13.5862-2.6877-17.1736-6.4268-4.3481-18.1807-4.9316-26.9912 4.2847-12.0303 12.7427-17.3955 21.9995-22.2617 39.3047-2.4824 12.9478 6.1709 17.7578 13.8291 20.647 2.7949 1.0547 5.0625 1.8003 6.9971 1.8105.3496.0249.7031.0327 1.0605.0205l1.124-.0386-10.8252 7.8901c-4.4629 3.2529-5.4434 9.5083-2.1904 13.9712 1.958 2.686 5.002 4.1108 8.0889 4.1104 2.043 0 4.1055-.624 5.8828-1.9194l37.1563-27.0825c3.5497-2.5874 4.995-7.1885 3.5634-11.3413z"/><path d="m147.6215 52.4139c-2.6204-2.0284-6.3876-1.552-8.418 1.0677-2.0298 2.6186-1.552 6.3876 1.0676 8.418l19.5935 15.1852c1.3826 1.0718 3.1241 1.4613 4.77 1.1564.8037-.1489 1.5857-.4636 2.2908-.9458l23.4706-16.0433c2.7363-1.8705 3.4371-5.6036 1.5679-8.3391-1.8695-2.7365-5.6056-3.4369-8.3391-1.5679l-19.8632 13.5774z"/><path d="m418.0301 111.8505c.1124-1.7245-.373-3.3474-1.2711-4.6766-4.1648 2.2433-9.7683 4.9734-16.6157 7.7883-2.3718.9751-4.7551 1.8889-7.1438 2.769l17.0574 1.1143c1.1794.0773 2.3126-.1226 3.3357-.5437 2.5651-1.0544 4.4445-3.4969 4.6375-6.4513z"/><path d="m408.3412 33.4778c-2.976 1.9868-7.875 2.4983-14.4495-8.9634-5.3008-9.2421-11.2737-11.0756-16.3876-10.46.3811.696.7352 1.4135 1.0438 2.1641.7845 1.9085 1.255 3.8669 1.4677 5.8226 4.5385 4.3337 8.3925 14.6949 15.7439 16.6711 11.6152 3.1221 15.5585-7.2215 12.5817-5.2344z"/><path d="m366.018 42.0203c9.7565-4.0109 14.4136-15.1711 10.403-24.9272-4.0109-9.7566-15.171-14.4144-24.9274-10.4035-9.7566 4.0109-14.4138 15.1711-10.4028 24.9277 4.0107 9.7561 15.1706 14.4139 24.9272 10.403zm2.9034-13.4253s-6.4408 17.2214-19.8302 4.3796c0 0 12.5664 1.2178 19.8302-4.3796z"/><path d="m418.5098 96.0276c-3.7618-27.8588-20.8566-46.1619-28.6067-51.9385-7.7509-5.7758-14.3822-2.574-16.1018-1.5947-1.0753.6126-1.9608 1.3636-2.684 2.2036l-4.4749 4.4201-10.0769 9.9531-20.0488-.311c-2.9038-.0443-5.2849 2.2697-5.3309 5.168-.0446 2.8992 2.269 5.2857 5.1681 5.3309l22.2516.3452c.7194.011 1.4254-.1257 2.0776-.3938.6259-.2573 1.202-.6356 1.6932-1.1205l7.7302-7.6352 1.1047-1.0909 2.9165-6.8906c.7813-1.8443 2.2312-3.2792 4.082-4.04 1.8787-.7723 3.9432-.7611 5.8135.0306 3.8336 1.6227 5.6321 6.0619 4.0098 9.8953l-9.0117 21.2917c-.7314 1.7293-2.0731 3.1171-3.7784 3.9079l-6.1124 2.8328c-4.4934 9.8997-9.4944 21.5049-5.9689 37.424 32.079-6.3705 56.6251-20.4489 60.17-23.3348 3.5462-2.8859-4.6017-2.8211-4.8218-4.4532z"/><path d="m351.8647 91.8513c.0723-.0297.144-.0607.215-.0936l22.1967-10.2859c1.1829-.5486 2.1194-1.517 2.627-2.7171l9.012-21.2917c1.1301-2.6703-.1183-5.7507-2.7886-6.8809-2.6697-1.1309-5.7495.1173-6.8806 2.788l-8.2224 19.4262-20.3589 9.4343c-2.6305 1.2192-3.775 4.3399-2.5562 6.9711 1.1863 2.5594 4.1728 3.7115 6.756 2.6496z"/></g></svg>