<svg id="Capa_1" enable-background="new 0 0 512 512" height="512" viewBox="0 0 512 512" width="512" xmlns="http://www.w3.org/2000/svg"><g><path d="m455.15 99.174c2.292 6.849 3.455 14.021 3.455 21.317 0 36.999-30.104 67.1-67.105 67.1-15.682 0-30.437-5.35-42.266-15.029h3.542c4.142 0 7.5-3.357 7.5-7.5s-3.358-7.5-7.5-7.5h-21.024c-3.833-.05-7.604 3.314-7.5 7.5v21.022c0 4.143 3.358 7.5 7.5 7.5s7.5-3.357 7.5-7.5v-2.394c14.608 12.045 33.123 18.9 52.249 18.9 45.273 0 82.105-36.83 82.105-82.1 0-8.918-1.423-17.692-4.23-26.079-1.315-3.929-5.564-6.043-9.493-4.731-3.929 1.316-6.047 5.566-4.733 9.494zm-132.072 52.036c3.93-1.31 6.053-5.558 4.744-9.487-2.274-6.822-3.427-13.965-3.427-21.231 0-36.999 30.104-67.1 67.106-67.1 15.681 0 30.436 5.35 42.265 15.028h-3.541c-4.142 0-7.5 3.357-7.5 7.5s3.358 7.5 7.5 7.5h21.024c3.833.05 7.604-3.314 7.5-7.5v-21.023c0-4.143-3.358-7.5-7.5-7.5s-7.5 3.357-7.5 7.5v2.394c-14.607-12.044-33.122-18.9-52.249-18.9-45.273 0-82.106 36.83-82.106 82.1 0 8.881 1.412 17.621 4.197 25.976 1.325 3.976 5.643 6.024 9.487 4.743zm188.922 239.584c0-4.143-3.358-7.5-7.5-7.5-22.425 0-34.249 5.709-44.68 10.746-4.958 2.394-9.78 4.72-15.764 6.442-.15-3.662-.26-7.305-.317-10.891-.158-9.975.05-20.046.582-30.037h2.204c7.995 0 14.5-6.505 14.5-14.5v-46c0-7.995-6.505-14.5-14.5-14.5h-.505v-36.144c0-6.575-.624-13.13-1.852-19.564 40.123-19.578 67.832-60.79 67.832-108.355 0-66.439-54.056-120.491-120.5-120.491s-120.5 54.052-120.5 120.491c0 8.364.859 16.531 2.489 24.419h-39.489v-.5c0-7.995-6.505-14.5-14.5-14.5h-35.357c-7.995 0-14.5 6.505-14.5 14.5v.5h-154.643v-137.41c0-4.143-3.358-7.5-7.5-7.5s-7.5 3.357-7.5 7.5v497c0 4.143 3.358 7.5 7.5 7.5s7.5-3.357 7.5-7.5v-27.232c14.122 1.021 22.196 4.902 30.654 8.986 10.431 5.037 22.253 10.746 44.677 10.746s34.246-5.709 44.677-10.746c9.855-4.759 19.163-9.254 38.155-9.254s28.3 4.495 38.154 9.254c10.431 5.037 22.253 10.746 44.676 10.746 22.424 0 34.247-5.709 44.678-10.746 9.855-4.759 19.163-9.254 38.155-9.254 18.993 0 28.302 4.495 38.157 9.254 10.431 5.037 22.254 10.746 44.68 10.746s34.249-5.709 44.68-10.746c9.855-4.759 19.164-9.254 38.157-9.254 4.142 0 7.5-3.357 7.5-7.5s-3.358-7.5-7.5-7.5c-22.425 0-34.249 5.709-44.68 10.746-9.855 4.759-19.164 9.254-38.157 9.254s-28.302-4.495-38.157-9.254c-10.431-5.037-22.255-10.746-44.68-10.746-22.424 0-34.247 5.709-44.678 10.746-9.855 4.759-19.163 9.254-38.155 9.254-18.991 0-28.299-4.495-38.154-9.254-10.43-5.037-22.253-10.746-44.676-10.746-22.424 0-34.247 5.709-44.678 10.746-9.854 4.759-19.162 9.254-38.154 9.254s-28.3-4.495-38.154-9.254c-9.201-4.443-19.489-9.407-37.177-10.516v-63.669c14.122 1.021 22.196 4.902 30.654 8.986 10.431 5.037 22.253 10.746 44.677 10.746s34.246-5.709 44.677-10.746c9.855-4.759 19.163-9.254 38.155-9.254s28.3 4.495 38.154 9.254c10.431 5.037 22.253 10.746 44.676 10.746 22.424 0 34.247-5.709 44.678-10.746 9.855-4.759 19.163-9.254 38.155-9.254 18.993 0 28.302 4.495 38.157 9.254 10.431 5.037 22.254 10.746 44.68 10.746 15.844 0 33.209-5.207 44.68-10.746 9.855-4.759 19.164-9.254 38.157-9.254 4.142.001 7.5-3.356 7.5-7.499zm-120.5-375.794c58.173 0 105.5 47.323 105.5 105.491s-47.327 105.49-105.5 105.49-105.5-47.322-105.5-105.49 47.327-105.491 105.5-105.491zm-157.5 144.91h43.63c16.367 47.138 61.227 81.071 113.87 81.071 13.442 0 26.377-2.214 38.46-6.293.704 4.53 1.06 9.12 1.06 13.722v36.144h-102.37v-22.774c0-7.995-6.505-14.5-14.5-14.5h-80.15zm-219 0h154.643v30.181c0 4.143 3.358 7.5 7.5 7.5s7.5-3.357 7.5-7.5v-45.181h34.357v117.37h-34.357v-37.189c0-4.143-3.358-7.5-7.5-7.5s-7.5 3.357-7.5 7.5v22.189h-154.643zm279.148 234.13c-9.855 4.759-19.163 9.254-38.155 9.254-18.991 0-28.299-4.495-38.154-9.254-10.431-5.037-22.253-10.746-44.677-10.746s-34.247 5.709-44.678 10.746c-9.854 4.759-19.162 9.254-38.154 9.254s-28.3-4.495-38.154-9.254c-9.201-4.443-19.489-9.407-37.177-10.516v-121.244h154.643v.5c0 7.995 6.505 14.5 14.5 14.5h35.358c7.995 0 14.5-6.505 14.5-14.5v-.5h79.65v22.273h-.495c-7.995 0-14.5 6.505-14.5 14.5v46c0 7.995 6.505 14.5 14.5 14.5h2.207c.458 8.69.652 17.449.591 26.182-9.012 2.13-15.652 5.334-21.805 8.305zm142.941-49.486c-.036 0-.072-.001-.108 0h-40.597c-4.142 0-7.5 3.357-7.5 7.5s3.358 7.5 7.5 7.5h32.913c-.519 10.074-.714 20.222-.555 30.276.069 4.341.212 8.759.413 13.197-2.329.168-4.804.267-7.491.267-18.993 0-28.302-4.495-38.157-9.254-10.431-5.037-22.254-10.746-44.68-10.746-2.776 0-5.389.088-7.857.251.015-8.005-.178-16.024-.583-23.991h30.998c4.142 0 7.5-3.357 7.5-7.5s-3.358-7.5-7.5-7.5h-47.729v-45h132.37v45zm38.331 89.026c0 4.142-3.358 7.5-7.5 7.5s-7.5-3.358-7.5-7.5 3.358-7.5 7.5-7.5 7.5 3.358 7.5 7.5zm-129.62 4.894c0 4.142-3.358 7.5-7.5 7.5s-7.5-3.358-7.5-7.5 3.358-7.5 7.5-7.5 7.5 3.358 7.5 7.5zm-121.06 7.946c0 4.142-3.358 7.5-7.5 7.5s-7.5-3.358-7.5-7.5 3.358-7.5 7.5-7.5 7.5 3.358 7.5 7.5zm-148.57-3.061c0 4.142-3.358 7.5-7.5 7.5s-7.5-3.358-7.5-7.5 3.358-7.5 7.5-7.5 7.5 3.358 7.5 7.5z"/></g></svg>