<svg id="Line" enable-background="new 0 0 128 128" height="512" viewBox="0 0 128 128" width="512" xmlns="http://www.w3.org/2000/svg"><g><path d="m103 85c-11.028 0-20 8.972-20 20s8.972 20 20 20 20-8.972 20-20-8.972-20-20-20zm11.765 29.644c-.198.235-.481.356-.765.356-.228 0-.456-.077-.644-.235-2.893-2.435-6.57-3.776-10.356-3.776s-7.464 1.341-10.356 3.776c-.423.355-1.054.301-1.409-.121-.355-.423-.301-1.053.121-1.409 3.253-2.738 7.388-4.246 11.645-4.246 4.256 0 8.391 1.508 11.644 4.246.421.356.476.986.12 1.409zm-.121-17.89c-3.253 2.738-7.388 4.246-11.644 4.246s-8.391-1.508-11.644-4.246c-.422-.356-.477-.986-.121-1.409.355-.422.987-.477 1.409-.121 2.893 2.435 6.57 3.776 10.356 3.776 3.785 0 7.463-1.341 10.356-3.776.421-.356 1.053-.302 1.409.121s.301 1.053-.121 1.409z"/><path d="m3.729 112.687c-.979 1.217-.972 3.505.026 4.659l6.951 6.947c1.042.959 3.331.946 4.63-.044l23.722-23.722-10.736-10.736z"/><path d="m46.139 67.553c-1.163-2.16-2.082-4.429-2.749-6.783-1.224 5.218-3.406 12.062-7.166 18.097l3.262 3.261c2.762-4.128 5.001-9.02 6.653-14.575z"/><path d="m33.269 78.737c-.955-1.108-1.953-1.663-3.019-1.705-1.166-.038-2.389.538-3.542 1.688-1.132 1.127-1.706 2.238-1.707 3.301-.001 1.074.582 2.202 1.733 3.353l16.889 16.888c2.047 1.416 4.399.603 5.834-.844 1.301-1.312 2.269-3.594.754-5.738z"/><path d="m47.299 89.94 3.238 3.237c6.587-4.269 14.188-6.594 19.875-7.833-2.68-.54-5.293-1.375-7.798-2.522-5.887 1.74-11.025 4.137-15.315 7.118z"/><path d="m125.001 36.458c-.009-9.272-3.365-17.483-9.704-23.747-6.338-6.262-14.9-9.695-24.152-9.695-.158 0-.316.001-.474.003-11.532.147-23.203 5.485-32.02 14.648-17.404 18.087-19.533 42.427-4.954 56.616 6.905 6.72 15.63 9.925 24.757 9.761.011-.001.025-.003.035-.003.009-.001.017.003.025.003 10.825-.213 22.213-5.169 31.807-14.683 9.341-9.265 14.692-21.257 14.68-32.903zm-39.087 40.042 5.586-5.586 3.539 3.539c-2.596 1.368-5.271 2.44-7.974 3.198zm-1.121 1.707c-.247.053-.493.106-.74.153l.447-.447zm-16.652-.762c-2.411-.813-4.683-1.946-6.788-3.384l3.147-3.147 5.086 5.086zm2.859-.031 1.049 1.049c-.581-.108-1.154-.236-1.721-.378zm-5.086-7.914 5.086-5.086 5.086 5.086-5.086 5.086zm17.172-59-5.086 5.086-3.42-3.42c2.408-1.224 4.861-2.169 7.322-2.85zm1.088-1.74c.269-.056.538-.104.807-.154l-.48.48zm15.845.635c2.422.753 4.753 1.825 6.955 3.217l-3.024 3.024-5.201-4.971zm-2.716-.113-.776-.742c.423.077.844.16 1.263.255zm5.233 7.768-5.036 5.036-5.086-5.086 4.921-4.921zm-53.406 30.234 2.37-2.37 5.086 5.086-5.086 5.086-2.448-2.448c-.123-1.758-.102-3.546.078-5.354zm3.784-3.784 5.586-5.586 5.086 5.086-5.586 5.586zm12.086.914 5.086 5.086-5.586 5.586-5.086-5.086zm31.086-7.914-5.086 5.086-5.086-5.086 5.086-5.086zm-3.672-6.5 5.086-5.086 5.086 5.086-5.086 5.086zm-2.828 13-5.086 5.086-5.086-5.086 5.086-5.086zm-5.086-7.914-5.086-5.086 5.086-5.086 5.086 5.086zm-1.414 1.414-5.086 5.086-5.086-5.086 5.086-5.086zm-6.5 6.5-5.086 5.086-5.086-5.086 5.086-5.086zm-5.086 7.914 5.086 5.086-5.586 5.586-5.086-5.086zm1.414-1.414 5.086-5.086 5.086 5.086-5.086 5.086zm11.586 1.414 5.086 5.086-5.086 5.086-5.086-5.086zm1.414-1.414 5.086-5.086 5.086 5.086-5.086 5.086zm6.5-6.5 5.086-5.086 5.086 5.086-5.086 5.086zm6.5-6.5 5.086-5.086 5.086 5.086-5.086 5.086zm11.586 1.414 5.586 5.586-5.086 5.086-5.586-5.586zm9.498-2.267c.025 1.369-.045 2.75-.195 4.135l-2.303 2.303-5.586-5.586 5.361-5.361 2.614 2.499c.055.664.097 1.332.109 2.01zm-2.498 9.267 1.068 1.068c-.709 2.461-1.667 4.906-2.873 7.299l-3.281-3.281zm1.414-1.414.36-.36c-.041.198-.082.395-.126.593zm-.225-13.775.494-.494c.098.404.188.811.268 1.223zm-1.446-1.382-5.201-4.971 3.104-3.104c1.461 2.074 2.598 4.341 3.406 6.766zm-1.414 1.414-5.329 5.329-5.086-5.086 5.214-5.214zm-11.829-1.171-5.086-5.086 5.068-5.068 5.201 4.971zm-7.914-5.086-5.086 5.086-5.086-5.086 5.086-5.086zm-11.586-1.414-5.086-5.086 5.086-5.086 5.086 5.086zm-7.914-5.086-5.086 5.086-4.797-4.797c1.959-1.577 3.981-2.952 6.043-4.129zm1.414 1.414 5.086 5.086-5.086 5.086-5.086-5.086zm-1.414 11.586-5.086 5.086-5.086-5.086 5.086-5.086zm-6.5 6.5-5.086 5.086-5.086-5.086 5.086-5.086zm-11.586-1.414-3.878-3.878c1.203-2.036 2.598-4.04 4.179-5.993l4.785 4.785zm-1.414 1.414-5.586 5.586-1.134-1.134c.766-2.656 1.85-5.314 3.241-7.931zm-7 7-.459.459c.05-.25.112-.501.167-.751zm0 13-.423.423c-.077-.347-.14-.699-.204-1.05zm1.414 1.414 5.086 5.086-3.07 3.07c-1.419-2.17-2.502-4.49-3.253-6.919zm1.414-1.414 5.086-5.086 5.086 5.086-5.086 5.086zm11.586 1.414 5.086 5.086-5.086 5.086-5.086-5.086zm7.914 5.086 5.586-5.586 5.086 5.086-5.586 5.586zm12.086.914 5.586 5.586-5.586 5.586-5.586-5.586zm8.414 5.586 5.086-5.086 4.831 4.831c-1.915 1.576-3.914 2.982-5.976 4.196zm-1.414-1.414-5.586-5.586 5.086-5.086 5.586 5.586zm.914-12.086 5.086-5.086 5.586 5.586-5.086 5.086zm6.5-6.5 5.086-5.086 5.586 5.586-5.086 5.086zm12.086 1.914 3.712 3.712c-1.176 2.089-2.546 4.125-4.081 6.091l-4.717-4.717zm2.917-32.745-3.321 3.321-5.201-4.971 3.261-3.261c1.045.764 2.059 1.597 3.031 2.517.802.758 1.541 1.56 2.23 2.394zm-20.72-10.546 2.692 2.574-4.889 4.889-5.086-5.086 2.335-2.335c1.663-.142 3.315-.156 4.948-.042zm-28.031 10.457 4.92 4.92-5.086 5.086-4.906-4.906c.701-.803 1.426-1.599 2.192-2.38.94-.958 1.902-1.864 2.88-2.72zm-10.478 49.146 3.312-3.312 5.086 5.086-3.361 3.361c-.84-.667-1.653-1.38-2.43-2.151-.955-.95-1.817-1.949-2.607-2.984zm23.256 11.253c-.07 0-.141.001-.21.001-.823 0-1.635-.038-2.438-.1l-2.882-2.88 5.086-5.086 5.586 5.586-2.325 2.325c-.941.088-1.881.149-2.817.154zm26.408-11.041-4.938-4.938 5.086-5.086 4.864 4.864c-.841.995-1.719 1.974-2.65 2.922-.766.781-1.558 1.52-2.362 2.238z"/></g></svg>